<svg width="20" height="20" viewBox="0 0 20 20" fill="none" xmlns="http://www.w3.org/2000/svg">
<path d="M19.9253 9.607C19.7234 9.119 19.2907 9.002 18.9979 8.974V6C18.9979 4.897 18.1015 4 16.9992 4H11.003V2.61C11.3078 2.336 11.5027 1.942 11.5027 1.5C11.5027 1.10218 11.3447 0.720644 11.0636 0.43934C10.7825 0.158035 10.4012 0 10.0036 0C9.60605 0 9.22476 0.158035 8.94363 0.43934C8.66251 0.720644 8.50457 1.10218 8.50457 1.5C8.50457 1.942 8.69945 2.336 9.00426 2.61V4H3.00808C1.90578 4 1.00936 4.897 1.00936 6V8.997L0.927408 9.003C0.675542 9.02119 0.439896 9.13412 0.267847 9.31908C0.0957975 9.50404 0.00010218 9.74732 0 10V12C0 12.2652 0.10529 12.5196 0.292706 12.7071C0.480123 12.8946 0.734315 13 0.999362 13H1.00936V18C1.00936 19.103 1.90578 20 3.00808 20H16.9992C18.1015 20 18.9979 19.103 18.9979 18V13C19.2629 13 19.5171 12.8946 19.7045 12.7071C19.892 12.5196 19.9972 12.2652 19.9972 12V10.062C20.0088 9.90681 19.9841 9.75106 19.9253 9.607ZM3.00808 18V6H16.9992L17.0002 9.996L16.9992 10V12L17.0002 12.005L17.0012 18H3.00808Z" fill="#2EA6E5"/>
<path d="M6.50588 12C7.33378 12 8.00492 11.1046 8.00492 10C8.00492 8.89543 7.33378 8 6.50588 8C5.67798 8 5.00684 8.89543 5.00684 10C5.00684 11.1046 5.67798 12 6.50588 12Z" fill="#2EA6E5"/>
<path d="M13.5015 12C14.3294 12 15.0005 11.1046 15.0005 10C15.0005 8.89543 14.3294 8 13.5015 8C12.6736 8 12.0024 8.89543 12.0024 10C12.0024 11.1046 12.6736 12 13.5015 12Z" fill="#2EA6E5"/>
<path d="M6.0061 14H14.001V16H6.0061V14Z" fill="#2EA6E5"/>
</svg>
