<svg width="21" height="20" viewBox="0 0 21 20" fill="none" xmlns="http://www.w3.org/2000/svg">
<path d="M14.3166 14.75C14.1036 14.5093 13.9971 14.2363 13.9971 13.9311C13.9971 13.6259 14.1036 13.3711 14.3166 13.1667L16.4655 11.1111H8.13112C7.802 11.1111 7.52593 11.0044 7.30291 10.7911C7.07988 10.5778 6.96876 10.3141 6.96953 10C6.96953 9.68518 7.08105 9.42111 7.30407 9.20778C7.5271 8.99444 7.80278 8.88815 8.13112 8.88889H16.4655L14.3166 6.83333C14.0843 6.61111 13.9681 6.34704 13.9681 6.04111C13.9681 5.73519 14.0843 5.47148 14.3166 5.25C14.5295 5.02778 14.7959 4.91667 15.1158 4.91667C15.4356 4.91667 15.7016 5.01852 15.9138 5.22222L20.0955 9.22222C20.2116 9.33333 20.2941 9.4537 20.3429 9.58333C20.3917 9.71296 20.4157 9.85185 20.4149 10C20.4149 10.1481 20.3909 10.287 20.3429 10.4167C20.2949 10.5463 20.2124 10.6667 20.0955 10.7778L15.9138 14.7778C15.6621 15.0185 15.386 15.1252 15.0856 15.0978C14.7851 15.0704 14.5288 14.9544 14.3166 14.75ZM2.32318 20C1.68431 20 1.1372 19.7822 0.681854 19.3467C0.226512 18.9111 -0.00077242 18.3881 1.97214e-06 17.7778V2.22222C1.97214e-06 1.61111 0.227673 1.08778 0.683016 0.652224C1.13836 0.216668 1.68508 -0.000738854 2.32318 1.88644e-06H9.29271C9.62183 1.88644e-06 9.8979 0.106669 10.1209 0.320002C10.3439 0.533335 10.4551 0.797039 10.4543 1.11111C10.4543 1.42593 10.3428 1.69 10.1198 1.90333C9.89674 2.11667 9.62105 2.22296 9.29271 2.22222H2.32318V17.7778H9.29271C9.62183 17.7778 9.8979 17.8844 10.1209 18.0978C10.3439 18.3111 10.4551 18.5748 10.4543 18.8889C10.4543 19.2037 10.3428 19.4678 10.1198 19.6811C9.89674 19.8944 9.62105 20.0007 9.29271 20H2.32318Z" fill="#2EA6E5"/>
</svg>
