<svg width="21" height="20" viewBox="0 0 21 20" fill="none" xmlns="http://www.w3.org/2000/svg">
<path d="M18.6285 15.628L18.4357 15.4613C17.8887 14.9839 17.41 14.4364 17.0123 13.8336C16.5781 13.0016 16.3178 12.0931 16.2468 11.1613V8.41688C16.2505 6.95334 15.7086 5.53881 14.7229 4.43909C13.7371 3.33937 12.3754 2.63014 10.8935 2.44466V1.72799C10.8935 1.53129 10.8138 1.34265 10.6718 1.20356C10.5298 1.06447 10.3373 0.986328 10.1365 0.986328C9.93569 0.986328 9.74313 1.06447 9.60116 1.20356C9.45918 1.34265 9.37942 1.53129 9.37942 1.72799V2.45577C7.91083 2.65462 6.56555 3.36814 5.59275 4.46417C4.61996 5.56019 4.08556 6.96446 4.08855 8.41688V11.1613C4.01753 12.0931 3.75725 13.0016 3.32299 13.8336C2.93221 14.4349 2.46114 14.9823 1.9223 15.4613L1.72949 15.628V17.1947H18.6285V15.628Z" fill="#2EA6E5"/>
<path d="M8.68774 17.7778C8.73747 18.13 8.91559 18.4526 9.18921 18.6861C9.46282 18.9197 9.81345 19.0483 10.1763 19.0483C10.5392 19.0483 10.8898 18.9197 11.1635 18.6861C11.4371 18.4526 11.6152 18.13 11.6649 17.7778H8.68774Z" fill="#2EA6E5"/>
</svg>
