<svg width="37" height="36" viewBox="0 0 37 36" fill="none" xmlns="http://www.w3.org/2000/svg">
<path fill-rule="evenodd" clip-rule="evenodd" d="M25.7228 0C31.8112 0 36.7469 4.83532 36.7469 10.8V25.2C36.7469 31.1647 31.8112 36 25.7228 36H11.0241C4.93564 36 0 31.1647 0 25.2V10.8C0 4.83532 4.93564 0 11.0241 0H25.7228Z" fill="#E8E9FF"/>
<path d="M26.7945 23.628L26.6017 23.4613C26.0547 22.9839 25.576 22.4364 25.1784 21.8336C24.7441 21.0016 24.4838 20.0931 24.4128 19.1613V16.4169C24.4165 14.9533 23.8746 13.5388 22.8889 12.4391C21.9032 11.3394 20.5414 10.6301 19.0595 10.4447V9.72799C19.0595 9.53129 18.9798 9.34265 18.8378 9.20356C18.6958 9.06447 18.5033 8.98633 18.3025 8.98633C18.1017 8.98633 17.9091 9.06447 17.7672 9.20356C17.6252 9.34265 17.5454 9.53129 17.5454 9.72799V10.4558C16.0768 10.6546 14.7316 11.3681 13.7588 12.4642C12.786 13.5602 12.2516 14.9645 12.2546 16.4169V19.1613C12.1835 20.0931 11.9233 21.0016 11.489 21.8336C11.0982 22.4349 10.6272 22.9823 10.0883 23.4613L9.89551 23.628V25.1947H26.7945V23.628Z" fill="#2EA6E5"/>
<path d="M16.8538 25.7778C16.9035 26.13 17.0816 26.4526 17.3552 26.6861C17.6288 26.9197 17.9795 27.0483 18.3423 27.0483C18.7052 27.0483 19.0559 26.9197 19.3295 26.6861C19.6031 26.4526 19.7812 26.13 19.8309 25.7778H16.8538Z" fill="#2EA6E5"/>
</svg>
