<svg width="23" height="22" viewBox="0 0 23 22" fill="none" xmlns="http://www.w3.org/2000/svg">
<path d="M11.2075 1C5.56988 1 1 5.477 1 11C1 16.523 5.56988 21 11.2075 21C16.8451 21 21.4149 16.523 21.4149 11C21.4149 5.477 16.8451 1 11.2075 1Z" stroke="#2EA6E5" stroke-width="2" stroke-linecap="round" stroke-linejoin="round"/>
<path d="M3.31812 17.346C3.31812 17.346 5.59336 14.5 11.2075 14.5C16.8216 14.5 19.0978 17.346 19.0978 17.346M11.2075 11C12.0196 11 12.7985 10.6839 13.3728 10.1213C13.9471 9.55871 14.2697 8.79565 14.2697 8C14.2697 7.20435 13.9471 6.44129 13.3728 5.87868C12.7985 5.31607 12.0196 5 11.2075 5C10.3953 5 9.61642 5.31607 9.04214 5.87868C8.46786 6.44129 8.14523 7.20435 8.14523 8C8.14523 8.79565 8.46786 9.55871 9.04214 10.1213C9.61642 10.6839 10.3953 11 11.2075 11Z" stroke="#2EA6E5" stroke-width="2" stroke-linecap="round" stroke-linejoin="round"/>
</svg>
