<svg width="22" height="22" viewBox="0 0 22 22" fill="none" xmlns="http://www.w3.org/2000/svg">
<path d="M19.3735 9.42105C19.3735 7.18765 18.5131 5.04572 16.9817 3.46647C15.4503 1.88722 13.3732 1 11.2075 1C9.04173 1 6.96468 1.88722 5.43326 3.46647C3.90185 5.04572 3.0415 7.18765 3.0415 9.42105" stroke="#2EA6E5" stroke-linecap="round" stroke-linejoin="round"/>
<path d="M19.3734 16.7895V17.3158C19.3734 17.8742 19.1584 18.4096 18.7755 18.8045C18.3927 19.1993 17.8734 19.4211 17.332 19.4211H13.7593M1 14.0927V12.1179C1.00007 11.6485 1.1523 11.1925 1.4325 10.8225C1.71269 10.4525 2.10478 10.1897 2.54643 10.0758L4.32253 9.61687C4.41278 9.59369 4.50697 9.59201 4.59794 9.61196C4.68891 9.63191 4.77428 9.67297 4.84758 9.73201C4.92087 9.79106 4.98016 9.86654 5.02095 9.95274C5.06174 10.0389 5.08295 10.1336 5.08299 10.2295V15.98C5.08315 16.0761 5.06203 16.171 5.02125 16.2575C4.98047 16.3439 4.9211 16.4196 4.84767 16.4788C4.77423 16.5379 4.68866 16.5791 4.59748 16.599C4.5063 16.6189 4.41191 16.6171 4.32151 16.5937L2.54541 16.1358C2.10394 16.0218 1.71209 15.7589 1.43209 15.3889C1.1521 15.0189 1.00001 14.563 1 14.0937V14.0927ZM21.4149 14.0927V12.1179C21.4149 11.6485 21.2626 11.1925 20.9824 10.8225C20.7022 10.4525 20.3102 10.1897 19.8685 10.0758L18.0924 9.61687C18.0022 9.59369 17.908 9.59201 17.817 9.61196C17.726 9.63191 17.6407 9.67297 17.5674 9.73201C17.4941 9.79106 17.4348 9.86654 17.394 9.95274C17.3532 10.0389 17.332 10.1336 17.332 10.2295V15.98C17.3318 16.076 17.3529 16.1708 17.3937 16.2571C17.4344 16.3435 17.4936 16.4191 17.567 16.4782C17.6403 16.5374 17.7257 16.5785 17.8167 16.5986C17.9078 16.6186 18.0021 16.6169 18.0924 16.5937L19.8685 16.1358C20.3102 16.022 20.7022 15.7592 20.9824 15.3891C21.2626 15.0191 21.4149 14.5632 21.4149 14.0937V14.0927Z" stroke="#2EA6E5"/>
<path d="M12.7386 21.0002H9.67638C9.27031 21.0002 8.88086 20.8338 8.59372 20.5377C8.30658 20.2416 8.14526 19.84 8.14526 19.4212C8.14526 19.0025 8.30658 18.6009 8.59372 18.3047C8.88086 18.0086 9.27031 17.8423 9.67638 17.8423H12.7386C13.1447 17.8423 13.5341 18.0086 13.8213 18.3047C14.1084 18.6009 14.2697 19.0025 14.2697 19.4212C14.2697 19.84 14.1084 20.2416 13.8213 20.5377C13.5341 20.8338 13.1447 21.0002 12.7386 21.0002Z" stroke="#2EA6E5"/>
</svg>
