<svg width="21" height="20" viewBox="0 0 21 20" fill="none" xmlns="http://www.w3.org/2000/svg">
<path d="M20.4149 15L15.1803 20L11.5161 16.5L13.0865 15L15.1803 17L18.8446 13.5L20.4149 15ZM2.09384 0C1.53852 0 1.00594 0.210714 0.613271 0.585786C0.2206 0.960859 0 1.46957 0 2V18C0 19.11 0.931759 20 2.09384 20H10.2703C9.89339 19.38 9.63166 18.7 9.50603 18H2.09384V2H9.42228V7H14.6569V11.08C15.0024 11.03 15.3583 11 15.7038 11C16.0598 11 16.4052 11.03 16.7507 11.08V6L10.4692 0M4.18768 10V12H12.563V10M4.18768 14V16H9.42228V14H4.18768Z" fill="#2EA6E5"/>
</svg>
